G04 #@! TF.FileFunction,Legend,Top*
%FSLAX46Y46*%
G04 Gerber Fmt 4.6, Leading zero omitted, Abs format (unit mm)*
G04 Created by KiCad (PCBNEW 4.0.1-stable) date 2016 March 24, Thursday 20:42:45*
%MOMM*%
G01*
G04 APERTURE LIST*
%ADD10C,0.100000*%
%ADD11C,0.200000*%
%ADD12C,0.150000*%
%ADD13C,0.080000*%
%ADD14R,0.900000X1.000000*%
%ADD15R,0.800000X1.000000*%
%ADD16O,1.517600X2.305000*%
%ADD17R,1.517600X2.305000*%
%ADD18R,2.127200X2.432000*%
%ADD19O,2.127200X2.432000*%
%ADD20R,0.700000X1.050000*%
%ADD21R,1.640000X1.175000*%
G04 APERTURE END LIST*
D10*
X145212619Y-103362382D02*
X145188810Y-103314763D01*
X145188810Y-103219525D01*
X145212619Y-103171906D01*
X145260238Y-103148096D01*
X145450714Y-103148096D01*
X145498333Y-103171906D01*
X145522143Y-103219525D01*
X145522143Y-103314763D01*
X145498333Y-103362382D01*
X145450714Y-103386191D01*
X145403095Y-103386191D01*
X145355476Y-103148096D01*
X145188810Y-103671905D02*
X145212619Y-103624286D01*
X145260238Y-103600477D01*
X145688810Y-103600477D01*
X145212619Y-104052858D02*
X145188810Y-104005239D01*
X145188810Y-103910001D01*
X145212619Y-103862382D01*
X145260238Y-103838572D01*
X145450714Y-103838572D01*
X145498333Y-103862382D01*
X145522143Y-103910001D01*
X145522143Y-104005239D01*
X145498333Y-104052858D01*
X145450714Y-104076667D01*
X145403095Y-104076667D01*
X145355476Y-103838572D01*
X145212619Y-104505238D02*
X145188810Y-104457619D01*
X145188810Y-104362381D01*
X145212619Y-104314762D01*
X145236429Y-104290953D01*
X145284048Y-104267143D01*
X145426905Y-104267143D01*
X145474524Y-104290953D01*
X145498333Y-104314762D01*
X145522143Y-104362381D01*
X145522143Y-104457619D01*
X145498333Y-104505238D01*
X145522143Y-104648095D02*
X145522143Y-104838571D01*
X145688810Y-104719524D02*
X145260238Y-104719524D01*
X145212619Y-104743333D01*
X145188810Y-104790952D01*
X145188810Y-104838571D01*
X145188810Y-105005238D02*
X145522143Y-105005238D01*
X145426905Y-105005238D02*
X145474524Y-105029047D01*
X145498333Y-105052857D01*
X145522143Y-105100476D01*
X145522143Y-105148095D01*
X145188810Y-105386190D02*
X145212619Y-105338571D01*
X145236429Y-105314762D01*
X145284048Y-105290952D01*
X145426905Y-105290952D01*
X145474524Y-105314762D01*
X145498333Y-105338571D01*
X145522143Y-105386190D01*
X145522143Y-105457619D01*
X145498333Y-105505238D01*
X145474524Y-105529047D01*
X145426905Y-105552857D01*
X145284048Y-105552857D01*
X145236429Y-105529047D01*
X145212619Y-105505238D01*
X145188810Y-105457619D01*
X145188810Y-105386190D01*
X145522143Y-105767143D02*
X145188810Y-105767143D01*
X145474524Y-105767143D02*
X145498333Y-105790952D01*
X145522143Y-105838571D01*
X145522143Y-105910000D01*
X145498333Y-105957619D01*
X145450714Y-105981428D01*
X145188810Y-105981428D01*
X145522143Y-106433809D02*
X145188810Y-106433809D01*
X145522143Y-106219524D02*
X145260238Y-106219524D01*
X145212619Y-106243333D01*
X145188810Y-106290952D01*
X145188810Y-106362381D01*
X145212619Y-106410000D01*
X145236429Y-106433809D01*
X145522143Y-106600476D02*
X145522143Y-106790952D01*
X145688810Y-106671905D02*
X145260238Y-106671905D01*
X145212619Y-106695714D01*
X145188810Y-106743333D01*
X145188810Y-106790952D01*
X145236429Y-106957619D02*
X145212619Y-106981428D01*
X145188810Y-106957619D01*
X145212619Y-106933809D01*
X145236429Y-106957619D01*
X145188810Y-106957619D01*
X145188810Y-107195714D02*
X145522143Y-107195714D01*
X145688810Y-107195714D02*
X145665000Y-107171904D01*
X145641190Y-107195714D01*
X145665000Y-107219523D01*
X145688810Y-107195714D01*
X145641190Y-107195714D01*
X145522143Y-107433809D02*
X145188810Y-107433809D01*
X145474524Y-107433809D02*
X145498333Y-107457618D01*
X145522143Y-107505237D01*
X145522143Y-107576666D01*
X145498333Y-107624285D01*
X145450714Y-107648094D01*
X145188810Y-107648094D01*
D11*
X151392000Y-105068714D02*
X151392000Y-105878238D01*
X151344381Y-105973476D01*
X151296762Y-106021095D01*
X151201523Y-106068714D01*
X151058666Y-106068714D01*
X150963428Y-106021095D01*
X151392000Y-105687762D02*
X151296762Y-105735381D01*
X151106285Y-105735381D01*
X151011047Y-105687762D01*
X150963428Y-105640143D01*
X150915809Y-105544905D01*
X150915809Y-105259190D01*
X150963428Y-105163952D01*
X151011047Y-105116333D01*
X151106285Y-105068714D01*
X151296762Y-105068714D01*
X151392000Y-105116333D01*
X152011047Y-105735381D02*
X151915809Y-105687762D01*
X151868190Y-105592524D01*
X151868190Y-104735381D01*
X152534857Y-105735381D02*
X152439619Y-105687762D01*
X152392000Y-105640143D01*
X152344381Y-105544905D01*
X152344381Y-105259190D01*
X152392000Y-105163952D01*
X152439619Y-105116333D01*
X152534857Y-105068714D01*
X152677715Y-105068714D01*
X152772953Y-105116333D01*
X152820572Y-105163952D01*
X152868191Y-105259190D01*
X152868191Y-105544905D01*
X152820572Y-105640143D01*
X152772953Y-105687762D01*
X152677715Y-105735381D01*
X152534857Y-105735381D01*
D12*
X151163000Y-107700000D02*
X151163000Y-108200000D01*
X152113000Y-108200000D02*
X152113000Y-107700000D01*
X147062000Y-101837000D02*
X146562000Y-101837000D01*
X146562000Y-102887000D02*
X147062000Y-102887000D01*
X151126000Y-101837000D02*
X150626000Y-101837000D01*
X150626000Y-102887000D02*
X151126000Y-102887000D01*
X149094000Y-101837000D02*
X148594000Y-101837000D01*
X148594000Y-102887000D02*
X149094000Y-102887000D01*
X150344000Y-108434000D02*
X150344000Y-105434000D01*
X147344000Y-108434000D02*
X147344000Y-105434000D01*
D13*
X152587334Y-107838857D02*
X152568286Y-107857905D01*
X152511143Y-107876952D01*
X152473048Y-107876952D01*
X152415905Y-107857905D01*
X152377810Y-107819810D01*
X152358762Y-107781714D01*
X152339714Y-107705524D01*
X152339714Y-107648381D01*
X152358762Y-107572190D01*
X152377810Y-107534095D01*
X152415905Y-107496000D01*
X152473048Y-107476952D01*
X152511143Y-107476952D01*
X152568286Y-107496000D01*
X152587334Y-107515048D01*
X152968286Y-107876952D02*
X152739714Y-107876952D01*
X152854000Y-107876952D02*
X152854000Y-107476952D01*
X152815905Y-107534095D01*
X152777810Y-107572190D01*
X152739714Y-107591238D01*
X146491334Y-101526952D02*
X146358000Y-101336476D01*
X146262762Y-101526952D02*
X146262762Y-101126952D01*
X146415143Y-101126952D01*
X146453238Y-101146000D01*
X146472286Y-101165048D01*
X146491334Y-101203143D01*
X146491334Y-101260286D01*
X146472286Y-101298381D01*
X146453238Y-101317429D01*
X146415143Y-101336476D01*
X146262762Y-101336476D01*
X146872286Y-101526952D02*
X146643714Y-101526952D01*
X146758000Y-101526952D02*
X146758000Y-101126952D01*
X146719905Y-101184095D01*
X146681810Y-101222190D01*
X146643714Y-101241238D01*
X150809334Y-101526952D02*
X150676000Y-101336476D01*
X150580762Y-101526952D02*
X150580762Y-101126952D01*
X150733143Y-101126952D01*
X150771238Y-101146000D01*
X150790286Y-101165048D01*
X150809334Y-101203143D01*
X150809334Y-101260286D01*
X150790286Y-101298381D01*
X150771238Y-101317429D01*
X150733143Y-101336476D01*
X150580762Y-101336476D01*
X150961714Y-101165048D02*
X150980762Y-101146000D01*
X151018857Y-101126952D01*
X151114095Y-101126952D01*
X151152191Y-101146000D01*
X151171238Y-101165048D01*
X151190286Y-101203143D01*
X151190286Y-101241238D01*
X151171238Y-101298381D01*
X150942667Y-101526952D01*
X151190286Y-101526952D01*
X148777334Y-101526952D02*
X148644000Y-101336476D01*
X148548762Y-101526952D02*
X148548762Y-101126952D01*
X148701143Y-101126952D01*
X148739238Y-101146000D01*
X148758286Y-101165048D01*
X148777334Y-101203143D01*
X148777334Y-101260286D01*
X148758286Y-101298381D01*
X148739238Y-101317429D01*
X148701143Y-101336476D01*
X148548762Y-101336476D01*
X148910667Y-101126952D02*
X149158286Y-101126952D01*
X149024953Y-101279333D01*
X149082095Y-101279333D01*
X149120191Y-101298381D01*
X149139238Y-101317429D01*
X149158286Y-101355524D01*
X149158286Y-101450762D01*
X149139238Y-101488857D01*
X149120191Y-101507905D01*
X149082095Y-101526952D01*
X148967810Y-101526952D01*
X148929714Y-101507905D01*
X148910667Y-101488857D01*
X145500762Y-100256952D02*
X145500762Y-99856952D01*
X145596000Y-99856952D01*
X145653143Y-99876000D01*
X145691238Y-99914095D01*
X145710286Y-99952190D01*
X145729334Y-100028381D01*
X145729334Y-100085524D01*
X145710286Y-100161714D01*
X145691238Y-100199810D01*
X145653143Y-100237905D01*
X145596000Y-100256952D01*
X145500762Y-100256952D01*
X146110286Y-100256952D02*
X145881714Y-100256952D01*
X145996000Y-100256952D02*
X145996000Y-99856952D01*
X145957905Y-99914095D01*
X145919810Y-99952190D01*
X145881714Y-99971238D01*
X147151762Y-112448952D02*
X147151762Y-112048952D01*
X147304143Y-112048952D01*
X147342238Y-112068000D01*
X147361286Y-112087048D01*
X147380334Y-112125143D01*
X147380334Y-112182286D01*
X147361286Y-112220381D01*
X147342238Y-112239429D01*
X147304143Y-112258476D01*
X147151762Y-112258476D01*
X147532714Y-112087048D02*
X147551762Y-112068000D01*
X147589857Y-112048952D01*
X147685095Y-112048952D01*
X147723191Y-112068000D01*
X147742238Y-112087048D01*
X147761286Y-112125143D01*
X147761286Y-112163238D01*
X147742238Y-112220381D01*
X147513667Y-112448952D01*
X147761286Y-112448952D01*
X146724952Y-107349476D02*
X146324952Y-107349476D01*
X146686857Y-106930428D02*
X146705905Y-106949476D01*
X146724952Y-107006619D01*
X146724952Y-107044714D01*
X146705905Y-107101857D01*
X146667810Y-107139952D01*
X146629714Y-107159000D01*
X146553524Y-107178048D01*
X146496381Y-107178048D01*
X146420190Y-107159000D01*
X146382095Y-107139952D01*
X146344000Y-107101857D01*
X146324952Y-107044714D01*
X146324952Y-107006619D01*
X146344000Y-106949476D01*
X146363048Y-106930428D01*
X146724952Y-106549476D02*
X146724952Y-106778048D01*
X146724952Y-106663762D02*
X146324952Y-106663762D01*
X146382095Y-106701857D01*
X146420190Y-106739952D01*
X146439238Y-106778048D01*
%LPC*%
D14*
X151638000Y-108500000D03*
X151638000Y-107400000D03*
D15*
X146362000Y-102362000D03*
X147262000Y-102362000D03*
X150426000Y-102362000D03*
X151326000Y-102362000D03*
X148394000Y-102362000D03*
X149294000Y-102362000D03*
D16*
X147066000Y-99822000D03*
D17*
X148336000Y-99822000D03*
D16*
X149606000Y-99822000D03*
X150876000Y-99822000D03*
D18*
X151384000Y-110998000D03*
D19*
X148844000Y-110998000D03*
X146304000Y-110998000D03*
D20*
X147844000Y-108234000D03*
X148344000Y-108234000D03*
X148844000Y-108234000D03*
X149344000Y-108234000D03*
X149844000Y-108234000D03*
X149844000Y-105634000D03*
X149344000Y-105634000D03*
X148844000Y-105634000D03*
X148344000Y-105634000D03*
X147844000Y-105634000D03*
D21*
X149464000Y-106546500D03*
X148224000Y-106546500D03*
X149464000Y-107321500D03*
X148224000Y-107321500D03*
M02*
