G04 #@! TF.FileFunction,Copper,L1,Top,Signal*
%FSLAX46Y46*%
G04 Gerber Fmt 4.6, Leading zero omitted, Abs format (unit mm)*
G04 Created by KiCad (PCBNEW 4.0.1-stable) date 2016 March 24, Thursday 20:42:45*
%MOMM*%
G01*
G04 APERTURE LIST*
%ADD10C,0.100000*%
%ADD11R,0.500000X0.600000*%
%ADD12R,0.400000X0.600000*%
%ADD13O,1.117600X1.905000*%
%ADD14R,1.117600X1.905000*%
%ADD15R,1.727200X2.032000*%
%ADD16O,1.727200X2.032000*%
%ADD17R,0.300000X0.650000*%
%ADD18R,1.240000X0.775000*%
%ADD19C,0.600000*%
%ADD20C,0.200000*%
G04 APERTURE END LIST*
D10*
D11*
X151638000Y-108500000D03*
X151638000Y-107400000D03*
D12*
X146362000Y-102362000D03*
X147262000Y-102362000D03*
X150426000Y-102362000D03*
X151326000Y-102362000D03*
X148394000Y-102362000D03*
X149294000Y-102362000D03*
D13*
X147066000Y-99822000D03*
D14*
X148336000Y-99822000D03*
D13*
X149606000Y-99822000D03*
X150876000Y-99822000D03*
D15*
X151384000Y-110998000D03*
D16*
X148844000Y-110998000D03*
X146304000Y-110998000D03*
D17*
X147844000Y-108234000D03*
X148344000Y-108234000D03*
X148844000Y-108234000D03*
X149344000Y-108234000D03*
X149844000Y-108234000D03*
X149844000Y-105634000D03*
X149344000Y-105634000D03*
X148844000Y-105634000D03*
X148344000Y-105634000D03*
X147844000Y-105634000D03*
D18*
X149464000Y-106546500D03*
X148224000Y-106546500D03*
X149464000Y-107321500D03*
X148224000Y-107321500D03*
D19*
X146431000Y-106426000D03*
X152654000Y-109347000D03*
X146431000Y-108585000D03*
X146304000Y-107569000D03*
X151384000Y-104140000D03*
X146431000Y-104140000D03*
X149098000Y-103759000D03*
X145669000Y-100838000D03*
D20*
X146431000Y-106426000D02*
X147193000Y-105664000D01*
X147193000Y-105664000D02*
X147814000Y-105664000D01*
X147814000Y-105664000D02*
X147844000Y-105634000D01*
X152527000Y-108585000D02*
X151723000Y-108585000D01*
X152654000Y-108712000D02*
X152527000Y-108585000D01*
X152654000Y-109347000D02*
X152654000Y-108712000D01*
X151723000Y-108585000D02*
X151638000Y-108500000D01*
X151638000Y-108500000D02*
X151638000Y-110744000D01*
X151638000Y-110744000D02*
X151384000Y-110998000D01*
X147262000Y-100018000D02*
X147066000Y-99822000D01*
X147262000Y-102362000D02*
X147262000Y-100018000D01*
X149294000Y-100134000D02*
X149606000Y-99822000D01*
X149294000Y-102362000D02*
X149294000Y-100134000D01*
X151326000Y-100272000D02*
X150876000Y-99822000D01*
X151326000Y-102362000D02*
X151326000Y-100272000D01*
X146304000Y-107569000D02*
X147066000Y-108331000D01*
X147066000Y-108331000D02*
X147747000Y-108331000D01*
X147747000Y-108331000D02*
X147844000Y-108234000D01*
X148344000Y-108234000D02*
X148344000Y-109085000D01*
X148344000Y-109085000D02*
X147701000Y-109728000D01*
X147701000Y-109728000D02*
X146431000Y-109728000D01*
X146431000Y-109728000D02*
X146304000Y-109855000D01*
X146304000Y-109855000D02*
X146304000Y-110998000D01*
X149844000Y-105634000D02*
X149844000Y-104283000D01*
X149987000Y-104140000D02*
X151384000Y-104140000D01*
X149844000Y-104283000D02*
X149987000Y-104140000D01*
X146362000Y-104071000D02*
X146362000Y-102362000D01*
X146431000Y-104140000D02*
X146362000Y-104071000D01*
X149344000Y-105634000D02*
X149344000Y-104005000D01*
X149344000Y-104005000D02*
X149098000Y-103759000D01*
X149098000Y-103759000D02*
X149479000Y-103759000D01*
X150426000Y-102812000D02*
X150426000Y-102362000D01*
X149479000Y-103759000D02*
X150426000Y-102812000D01*
X148394000Y-102362000D02*
X148394000Y-103320000D01*
X145415000Y-101092000D02*
X145669000Y-100838000D01*
X145415000Y-105156000D02*
X145415000Y-101092000D01*
X145669000Y-105410000D02*
X145415000Y-105156000D01*
X146304000Y-105410000D02*
X145669000Y-105410000D01*
X148394000Y-103320000D02*
X146304000Y-105410000D01*
X148344000Y-105634000D02*
X148344000Y-102412000D01*
X148344000Y-102412000D02*
X148394000Y-102362000D01*
X148344000Y-102412000D02*
X148394000Y-102362000D01*
D10*
G36*
X152701016Y-98206284D02*
X152956204Y-98376796D01*
X153126716Y-98631984D01*
X153191000Y-98955162D01*
X153191000Y-109206386D01*
X153120539Y-109035857D01*
X153004000Y-108919114D01*
X153004000Y-108712000D01*
X152977358Y-108578061D01*
X152977358Y-108578060D01*
X152901487Y-108464513D01*
X152774487Y-108337513D01*
X152660939Y-108261642D01*
X152527000Y-108235000D01*
X152142897Y-108235000D01*
X152142897Y-108200000D01*
X152125465Y-108107356D01*
X152070712Y-108022268D01*
X152003985Y-107976675D01*
X152057936Y-107954328D01*
X152142328Y-107869937D01*
X152188000Y-107759674D01*
X152188000Y-107550000D01*
X152113000Y-107475000D01*
X151713000Y-107475000D01*
X151713000Y-107495000D01*
X151563000Y-107495000D01*
X151563000Y-107475000D01*
X151163000Y-107475000D01*
X151088000Y-107550000D01*
X151088000Y-107759674D01*
X151133672Y-107869937D01*
X151218064Y-107954328D01*
X151272847Y-107977019D01*
X151210268Y-108017288D01*
X151153185Y-108100831D01*
X151133103Y-108200000D01*
X151133103Y-108800000D01*
X151150535Y-108892644D01*
X151205288Y-108977732D01*
X151288000Y-109034247D01*
X151288000Y-109727103D01*
X150520400Y-109727103D01*
X150427756Y-109744535D01*
X150342668Y-109799288D01*
X150285585Y-109882831D01*
X150265503Y-109982000D01*
X150265503Y-112014000D01*
X150282935Y-112106644D01*
X150337688Y-112191732D01*
X150421231Y-112248815D01*
X150520400Y-112268897D01*
X152247600Y-112268897D01*
X152340244Y-112251465D01*
X152425332Y-112196712D01*
X152482415Y-112113169D01*
X152502497Y-112014000D01*
X152502497Y-109982000D01*
X152485065Y-109889356D01*
X152470161Y-109866194D01*
X152544118Y-109896904D01*
X152762922Y-109897095D01*
X152965143Y-109813539D01*
X153119995Y-109658957D01*
X153191000Y-109487958D01*
X153191000Y-111991838D01*
X153107381Y-112412218D01*
X152881811Y-112749809D01*
X152544218Y-112975381D01*
X152123838Y-113059000D01*
X146187883Y-113059000D01*
X145747593Y-113016299D01*
X145387048Y-112824277D01*
X145127433Y-112508897D01*
X145005000Y-112107451D01*
X145005000Y-101092000D01*
X145065000Y-101092000D01*
X145065000Y-105156000D01*
X145088881Y-105276060D01*
X145091642Y-105289939D01*
X145167513Y-105403487D01*
X145421512Y-105657487D01*
X145535060Y-105733358D01*
X145557282Y-105737778D01*
X145669000Y-105760000D01*
X146304000Y-105760000D01*
X146437939Y-105733358D01*
X146551487Y-105657487D01*
X147994000Y-104214975D01*
X147994000Y-105054103D01*
X147694000Y-105054103D01*
X147601356Y-105071535D01*
X147516268Y-105126288D01*
X147459185Y-105209831D01*
X147439103Y-105309000D01*
X147439103Y-105314000D01*
X147193000Y-105314000D01*
X147059061Y-105340642D01*
X146945513Y-105416512D01*
X146485978Y-105876048D01*
X146322078Y-105875905D01*
X146119857Y-105959461D01*
X145965005Y-106114043D01*
X145881096Y-106316118D01*
X145880905Y-106534922D01*
X145964461Y-106737143D01*
X146119043Y-106891995D01*
X146321118Y-106975904D01*
X146539922Y-106976095D01*
X146742143Y-106892539D01*
X146896995Y-106737957D01*
X146980904Y-106535882D01*
X146981048Y-106370926D01*
X147337975Y-106014000D01*
X147400500Y-106014000D01*
X147369185Y-106059831D01*
X147349103Y-106159000D01*
X147349103Y-107709000D01*
X147366535Y-107801644D01*
X147421288Y-107886732D01*
X147440899Y-107900132D01*
X147439103Y-107909000D01*
X147439103Y-107981000D01*
X147210975Y-107981000D01*
X146853952Y-107623978D01*
X146854095Y-107460078D01*
X146770539Y-107257857D01*
X146615957Y-107103005D01*
X146413882Y-107019096D01*
X146195078Y-107018905D01*
X145992857Y-107102461D01*
X145838005Y-107257043D01*
X145754096Y-107459118D01*
X145753905Y-107677922D01*
X145837461Y-107880143D01*
X145992043Y-108034995D01*
X146194118Y-108118904D01*
X146359074Y-108119048D01*
X146818513Y-108578488D01*
X146901502Y-108633939D01*
X146932061Y-108654358D01*
X147066000Y-108681000D01*
X147475425Y-108681000D01*
X147511288Y-108736732D01*
X147594831Y-108793815D01*
X147694000Y-108813897D01*
X147994000Y-108813897D01*
X147994000Y-108940025D01*
X147556026Y-109378000D01*
X146431000Y-109378000D01*
X146319282Y-109400222D01*
X146297060Y-109404642D01*
X146183513Y-109480513D01*
X146056513Y-109607513D01*
X145980642Y-109721061D01*
X145970192Y-109773597D01*
X145877844Y-109791966D01*
X145516566Y-110033364D01*
X145275168Y-110394642D01*
X145190400Y-110820798D01*
X145190400Y-111175202D01*
X145275168Y-111601358D01*
X145516566Y-111962636D01*
X145877844Y-112204034D01*
X146304000Y-112288802D01*
X146730156Y-112204034D01*
X147091434Y-111962636D01*
X147332832Y-111601358D01*
X147417600Y-111175202D01*
X147417600Y-111073000D01*
X147680400Y-111073000D01*
X147680400Y-111225400D01*
X147797675Y-111664981D01*
X148074243Y-112026222D01*
X148468000Y-112254127D01*
X148588275Y-112285551D01*
X148769000Y-112236413D01*
X148769000Y-111073000D01*
X148919000Y-111073000D01*
X148919000Y-112236413D01*
X149099725Y-112285551D01*
X149220000Y-112254127D01*
X149613757Y-112026222D01*
X149890325Y-111664981D01*
X150007600Y-111225400D01*
X150007600Y-111073000D01*
X148919000Y-111073000D01*
X148769000Y-111073000D01*
X147680400Y-111073000D01*
X147417600Y-111073000D01*
X147417600Y-110820798D01*
X147407615Y-110770600D01*
X147680400Y-110770600D01*
X147680400Y-110923000D01*
X148769000Y-110923000D01*
X148769000Y-109759587D01*
X148919000Y-109759587D01*
X148919000Y-110923000D01*
X150007600Y-110923000D01*
X150007600Y-110770600D01*
X149890325Y-110331019D01*
X149613757Y-109969778D01*
X149220000Y-109741873D01*
X149099725Y-109710449D01*
X148919000Y-109759587D01*
X148769000Y-109759587D01*
X148588275Y-109710449D01*
X148468000Y-109741873D01*
X148074243Y-109969778D01*
X147797675Y-110331019D01*
X147680400Y-110770600D01*
X147407615Y-110770600D01*
X147332832Y-110394642D01*
X147121259Y-110078000D01*
X147701000Y-110078000D01*
X147834939Y-110051358D01*
X147948487Y-109975487D01*
X148591487Y-109332488D01*
X148667358Y-109218940D01*
X148671778Y-109196718D01*
X148694000Y-109085000D01*
X148694000Y-108813897D01*
X148994000Y-108813897D01*
X149086644Y-108796465D01*
X149092858Y-108792467D01*
X149094831Y-108793815D01*
X149194000Y-108813897D01*
X149494000Y-108813897D01*
X149519782Y-108809046D01*
X149524064Y-108813328D01*
X149634327Y-108859000D01*
X149694000Y-108859000D01*
X149769000Y-108784000D01*
X149769000Y-108309000D01*
X149919000Y-108309000D01*
X149919000Y-108784000D01*
X149994000Y-108859000D01*
X150053673Y-108859000D01*
X150163936Y-108813328D01*
X150248328Y-108728937D01*
X150294000Y-108618674D01*
X150294000Y-108384000D01*
X150219000Y-108309000D01*
X149919000Y-108309000D01*
X149769000Y-108309000D01*
X149749000Y-108309000D01*
X149749000Y-108159000D01*
X149769000Y-108159000D01*
X149769000Y-108139000D01*
X149919000Y-108139000D01*
X149919000Y-108159000D01*
X150219000Y-108159000D01*
X150294000Y-108084000D01*
X150294000Y-107849326D01*
X150292752Y-107846313D01*
X150318815Y-107808169D01*
X150338897Y-107709000D01*
X150338897Y-107040326D01*
X151088000Y-107040326D01*
X151088000Y-107250000D01*
X151163000Y-107325000D01*
X151563000Y-107325000D01*
X151563000Y-106875000D01*
X151713000Y-106875000D01*
X151713000Y-107325000D01*
X152113000Y-107325000D01*
X152188000Y-107250000D01*
X152188000Y-107040326D01*
X152142328Y-106930063D01*
X152057936Y-106845672D01*
X151947673Y-106800000D01*
X151788000Y-106800000D01*
X151713000Y-106875000D01*
X151563000Y-106875000D01*
X151488000Y-106800000D01*
X151328327Y-106800000D01*
X151218064Y-106845672D01*
X151133672Y-106930063D01*
X151088000Y-107040326D01*
X150338897Y-107040326D01*
X150338897Y-106159000D01*
X150321465Y-106066356D01*
X150266712Y-105981268D01*
X150247101Y-105967868D01*
X150248897Y-105959000D01*
X150248897Y-105309000D01*
X150231465Y-105216356D01*
X150194000Y-105158134D01*
X150194000Y-104490000D01*
X150956250Y-104490000D01*
X151072043Y-104605995D01*
X151274118Y-104689904D01*
X151492922Y-104690095D01*
X151695143Y-104606539D01*
X151849995Y-104451957D01*
X151933904Y-104249882D01*
X151934095Y-104031078D01*
X151850539Y-103828857D01*
X151695957Y-103674005D01*
X151493882Y-103590096D01*
X151275078Y-103589905D01*
X151072857Y-103673461D01*
X150956114Y-103790000D01*
X149987000Y-103790000D01*
X149932043Y-103800932D01*
X150673487Y-103059488D01*
X150749358Y-102945940D01*
X150764467Y-102869979D01*
X150803732Y-102844712D01*
X150860815Y-102761169D01*
X150875820Y-102687070D01*
X150888535Y-102754644D01*
X150943288Y-102839732D01*
X151026831Y-102896815D01*
X151126000Y-102916897D01*
X151526000Y-102916897D01*
X151618644Y-102899465D01*
X151703732Y-102844712D01*
X151760815Y-102761169D01*
X151780897Y-102662000D01*
X151780897Y-102062000D01*
X151763465Y-101969356D01*
X151708712Y-101884268D01*
X151676000Y-101861917D01*
X151676000Y-100283499D01*
X151684800Y-100239258D01*
X151684800Y-99404742D01*
X151623234Y-99095228D01*
X151447908Y-98832834D01*
X151185514Y-98657508D01*
X150876000Y-98595942D01*
X150566486Y-98657508D01*
X150304092Y-98832834D01*
X150241000Y-98927258D01*
X150177908Y-98832834D01*
X149915514Y-98657508D01*
X149606000Y-98595942D01*
X149296486Y-98657508D01*
X149167427Y-98743742D01*
X149149128Y-98699563D01*
X149064736Y-98615172D01*
X148954473Y-98569500D01*
X148486000Y-98569500D01*
X148411000Y-98644500D01*
X148411000Y-99747000D01*
X148431000Y-99747000D01*
X148431000Y-99897000D01*
X148411000Y-99897000D01*
X148411000Y-100999500D01*
X148486000Y-101074500D01*
X148944000Y-101074500D01*
X148944000Y-101861443D01*
X148916268Y-101879288D01*
X148859185Y-101962831D01*
X148844180Y-102036930D01*
X148831465Y-101969356D01*
X148776712Y-101884268D01*
X148693169Y-101827185D01*
X148594000Y-101807103D01*
X148194000Y-101807103D01*
X148101356Y-101824535D01*
X148016268Y-101879288D01*
X147959185Y-101962831D01*
X147939103Y-102062000D01*
X147939103Y-102662000D01*
X147956535Y-102754644D01*
X147994000Y-102812866D01*
X147994000Y-103225025D01*
X146980914Y-104238111D01*
X146981095Y-104031078D01*
X146897539Y-103828857D01*
X146742957Y-103674005D01*
X146712000Y-103661151D01*
X146712000Y-102862557D01*
X146739732Y-102844712D01*
X146796815Y-102761169D01*
X146811820Y-102687070D01*
X146824535Y-102754644D01*
X146879288Y-102839732D01*
X146962831Y-102896815D01*
X147062000Y-102916897D01*
X147462000Y-102916897D01*
X147554644Y-102899465D01*
X147639732Y-102844712D01*
X147696815Y-102761169D01*
X147716897Y-102662000D01*
X147716897Y-102062000D01*
X147699465Y-101969356D01*
X147644712Y-101884268D01*
X147612000Y-101861917D01*
X147612000Y-101030790D01*
X147717527Y-101074500D01*
X148186000Y-101074500D01*
X148261000Y-100999500D01*
X148261000Y-99897000D01*
X148241000Y-99897000D01*
X148241000Y-99747000D01*
X148261000Y-99747000D01*
X148261000Y-98644500D01*
X148186000Y-98569500D01*
X147717527Y-98569500D01*
X147607264Y-98615172D01*
X147522872Y-98699563D01*
X147504573Y-98743742D01*
X147375514Y-98657508D01*
X147066000Y-98595942D01*
X146756486Y-98657508D01*
X146494092Y-98832834D01*
X146318766Y-99095228D01*
X146257200Y-99404742D01*
X146257200Y-100239258D01*
X146318766Y-100548772D01*
X146494092Y-100811166D01*
X146756486Y-100986492D01*
X146912000Y-101017426D01*
X146912000Y-101861443D01*
X146884268Y-101879288D01*
X146827185Y-101962831D01*
X146812180Y-102036930D01*
X146799465Y-101969356D01*
X146744712Y-101884268D01*
X146661169Y-101827185D01*
X146562000Y-101807103D01*
X146162000Y-101807103D01*
X146069356Y-101824535D01*
X145984268Y-101879288D01*
X145927185Y-101962831D01*
X145907103Y-102062000D01*
X145907103Y-102662000D01*
X145924535Y-102754644D01*
X145979288Y-102839732D01*
X146012000Y-102862083D01*
X146012000Y-103781130D01*
X145965005Y-103828043D01*
X145881096Y-104030118D01*
X145880905Y-104248922D01*
X145964461Y-104451143D01*
X146119043Y-104605995D01*
X146321118Y-104689904D01*
X146528940Y-104690085D01*
X146159026Y-105060000D01*
X145813975Y-105060000D01*
X145765000Y-105011026D01*
X145765000Y-101388084D01*
X145777922Y-101388095D01*
X145980143Y-101304539D01*
X146134995Y-101149957D01*
X146218904Y-100947882D01*
X146219095Y-100729078D01*
X146135539Y-100526857D01*
X145980957Y-100372005D01*
X145778882Y-100288096D01*
X145560078Y-100287905D01*
X145357857Y-100371461D01*
X145203005Y-100526043D01*
X145119096Y-100728118D01*
X145118931Y-100917221D01*
X145091642Y-100958061D01*
X145065000Y-101092000D01*
X145005000Y-101092000D01*
X145005000Y-99068101D01*
X145029936Y-98722351D01*
X145168861Y-98445224D01*
X145403263Y-98242358D01*
X145705391Y-98142000D01*
X152377838Y-98142000D01*
X152701016Y-98206284D01*
X152701016Y-98206284D01*
G37*
X152701016Y-98206284D02*
X152956204Y-98376796D01*
X153126716Y-98631984D01*
X153191000Y-98955162D01*
X153191000Y-109206386D01*
X153120539Y-109035857D01*
X153004000Y-108919114D01*
X153004000Y-108712000D01*
X152977358Y-108578061D01*
X152977358Y-108578060D01*
X152901487Y-108464513D01*
X152774487Y-108337513D01*
X152660939Y-108261642D01*
X152527000Y-108235000D01*
X152142897Y-108235000D01*
X152142897Y-108200000D01*
X152125465Y-108107356D01*
X152070712Y-108022268D01*
X152003985Y-107976675D01*
X152057936Y-107954328D01*
X152142328Y-107869937D01*
X152188000Y-107759674D01*
X152188000Y-107550000D01*
X152113000Y-107475000D01*
X151713000Y-107475000D01*
X151713000Y-107495000D01*
X151563000Y-107495000D01*
X151563000Y-107475000D01*
X151163000Y-107475000D01*
X151088000Y-107550000D01*
X151088000Y-107759674D01*
X151133672Y-107869937D01*
X151218064Y-107954328D01*
X151272847Y-107977019D01*
X151210268Y-108017288D01*
X151153185Y-108100831D01*
X151133103Y-108200000D01*
X151133103Y-108800000D01*
X151150535Y-108892644D01*
X151205288Y-108977732D01*
X151288000Y-109034247D01*
X151288000Y-109727103D01*
X150520400Y-109727103D01*
X150427756Y-109744535D01*
X150342668Y-109799288D01*
X150285585Y-109882831D01*
X150265503Y-109982000D01*
X150265503Y-112014000D01*
X150282935Y-112106644D01*
X150337688Y-112191732D01*
X150421231Y-112248815D01*
X150520400Y-112268897D01*
X152247600Y-112268897D01*
X152340244Y-112251465D01*
X152425332Y-112196712D01*
X152482415Y-112113169D01*
X152502497Y-112014000D01*
X152502497Y-109982000D01*
X152485065Y-109889356D01*
X152470161Y-109866194D01*
X152544118Y-109896904D01*
X152762922Y-109897095D01*
X152965143Y-109813539D01*
X153119995Y-109658957D01*
X153191000Y-109487958D01*
X153191000Y-111991838D01*
X153107381Y-112412218D01*
X152881811Y-112749809D01*
X152544218Y-112975381D01*
X152123838Y-113059000D01*
X146187883Y-113059000D01*
X145747593Y-113016299D01*
X145387048Y-112824277D01*
X145127433Y-112508897D01*
X145005000Y-112107451D01*
X145005000Y-101092000D01*
X145065000Y-101092000D01*
X145065000Y-105156000D01*
X145088881Y-105276060D01*
X145091642Y-105289939D01*
X145167513Y-105403487D01*
X145421512Y-105657487D01*
X145535060Y-105733358D01*
X145557282Y-105737778D01*
X145669000Y-105760000D01*
X146304000Y-105760000D01*
X146437939Y-105733358D01*
X146551487Y-105657487D01*
X147994000Y-104214975D01*
X147994000Y-105054103D01*
X147694000Y-105054103D01*
X147601356Y-105071535D01*
X147516268Y-105126288D01*
X147459185Y-105209831D01*
X147439103Y-105309000D01*
X147439103Y-105314000D01*
X147193000Y-105314000D01*
X147059061Y-105340642D01*
X146945513Y-105416512D01*
X146485978Y-105876048D01*
X146322078Y-105875905D01*
X146119857Y-105959461D01*
X145965005Y-106114043D01*
X145881096Y-106316118D01*
X145880905Y-106534922D01*
X145964461Y-106737143D01*
X146119043Y-106891995D01*
X146321118Y-106975904D01*
X146539922Y-106976095D01*
X146742143Y-106892539D01*
X146896995Y-106737957D01*
X146980904Y-106535882D01*
X146981048Y-106370926D01*
X147337975Y-106014000D01*
X147400500Y-106014000D01*
X147369185Y-106059831D01*
X147349103Y-106159000D01*
X147349103Y-107709000D01*
X147366535Y-107801644D01*
X147421288Y-107886732D01*
X147440899Y-107900132D01*
X147439103Y-107909000D01*
X147439103Y-107981000D01*
X147210975Y-107981000D01*
X146853952Y-107623978D01*
X146854095Y-107460078D01*
X146770539Y-107257857D01*
X146615957Y-107103005D01*
X146413882Y-107019096D01*
X146195078Y-107018905D01*
X145992857Y-107102461D01*
X145838005Y-107257043D01*
X145754096Y-107459118D01*
X145753905Y-107677922D01*
X145837461Y-107880143D01*
X145992043Y-108034995D01*
X146194118Y-108118904D01*
X146359074Y-108119048D01*
X146818513Y-108578488D01*
X146901502Y-108633939D01*
X146932061Y-108654358D01*
X147066000Y-108681000D01*
X147475425Y-108681000D01*
X147511288Y-108736732D01*
X147594831Y-108793815D01*
X147694000Y-108813897D01*
X147994000Y-108813897D01*
X147994000Y-108940025D01*
X147556026Y-109378000D01*
X146431000Y-109378000D01*
X146319282Y-109400222D01*
X146297060Y-109404642D01*
X146183513Y-109480513D01*
X146056513Y-109607513D01*
X145980642Y-109721061D01*
X145970192Y-109773597D01*
X145877844Y-109791966D01*
X145516566Y-110033364D01*
X145275168Y-110394642D01*
X145190400Y-110820798D01*
X145190400Y-111175202D01*
X145275168Y-111601358D01*
X145516566Y-111962636D01*
X145877844Y-112204034D01*
X146304000Y-112288802D01*
X146730156Y-112204034D01*
X147091434Y-111962636D01*
X147332832Y-111601358D01*
X147417600Y-111175202D01*
X147417600Y-111073000D01*
X147680400Y-111073000D01*
X147680400Y-111225400D01*
X147797675Y-111664981D01*
X148074243Y-112026222D01*
X148468000Y-112254127D01*
X148588275Y-112285551D01*
X148769000Y-112236413D01*
X148769000Y-111073000D01*
X148919000Y-111073000D01*
X148919000Y-112236413D01*
X149099725Y-112285551D01*
X149220000Y-112254127D01*
X149613757Y-112026222D01*
X149890325Y-111664981D01*
X150007600Y-111225400D01*
X150007600Y-111073000D01*
X148919000Y-111073000D01*
X148769000Y-111073000D01*
X147680400Y-111073000D01*
X147417600Y-111073000D01*
X147417600Y-110820798D01*
X147407615Y-110770600D01*
X147680400Y-110770600D01*
X147680400Y-110923000D01*
X148769000Y-110923000D01*
X148769000Y-109759587D01*
X148919000Y-109759587D01*
X148919000Y-110923000D01*
X150007600Y-110923000D01*
X150007600Y-110770600D01*
X149890325Y-110331019D01*
X149613757Y-109969778D01*
X149220000Y-109741873D01*
X149099725Y-109710449D01*
X148919000Y-109759587D01*
X148769000Y-109759587D01*
X148588275Y-109710449D01*
X148468000Y-109741873D01*
X148074243Y-109969778D01*
X147797675Y-110331019D01*
X147680400Y-110770600D01*
X147407615Y-110770600D01*
X147332832Y-110394642D01*
X147121259Y-110078000D01*
X147701000Y-110078000D01*
X147834939Y-110051358D01*
X147948487Y-109975487D01*
X148591487Y-109332488D01*
X148667358Y-109218940D01*
X148671778Y-109196718D01*
X148694000Y-109085000D01*
X148694000Y-108813897D01*
X148994000Y-108813897D01*
X149086644Y-108796465D01*
X149092858Y-108792467D01*
X149094831Y-108793815D01*
X149194000Y-108813897D01*
X149494000Y-108813897D01*
X149519782Y-108809046D01*
X149524064Y-108813328D01*
X149634327Y-108859000D01*
X149694000Y-108859000D01*
X149769000Y-108784000D01*
X149769000Y-108309000D01*
X149919000Y-108309000D01*
X149919000Y-108784000D01*
X149994000Y-108859000D01*
X150053673Y-108859000D01*
X150163936Y-108813328D01*
X150248328Y-108728937D01*
X150294000Y-108618674D01*
X150294000Y-108384000D01*
X150219000Y-108309000D01*
X149919000Y-108309000D01*
X149769000Y-108309000D01*
X149749000Y-108309000D01*
X149749000Y-108159000D01*
X149769000Y-108159000D01*
X149769000Y-108139000D01*
X149919000Y-108139000D01*
X149919000Y-108159000D01*
X150219000Y-108159000D01*
X150294000Y-108084000D01*
X150294000Y-107849326D01*
X150292752Y-107846313D01*
X150318815Y-107808169D01*
X150338897Y-107709000D01*
X150338897Y-107040326D01*
X151088000Y-107040326D01*
X151088000Y-107250000D01*
X151163000Y-107325000D01*
X151563000Y-107325000D01*
X151563000Y-106875000D01*
X151713000Y-106875000D01*
X151713000Y-107325000D01*
X152113000Y-107325000D01*
X152188000Y-107250000D01*
X152188000Y-107040326D01*
X152142328Y-106930063D01*
X152057936Y-106845672D01*
X151947673Y-106800000D01*
X151788000Y-106800000D01*
X151713000Y-106875000D01*
X151563000Y-106875000D01*
X151488000Y-106800000D01*
X151328327Y-106800000D01*
X151218064Y-106845672D01*
X151133672Y-106930063D01*
X151088000Y-107040326D01*
X150338897Y-107040326D01*
X150338897Y-106159000D01*
X150321465Y-106066356D01*
X150266712Y-105981268D01*
X150247101Y-105967868D01*
X150248897Y-105959000D01*
X150248897Y-105309000D01*
X150231465Y-105216356D01*
X150194000Y-105158134D01*
X150194000Y-104490000D01*
X150956250Y-104490000D01*
X151072043Y-104605995D01*
X151274118Y-104689904D01*
X151492922Y-104690095D01*
X151695143Y-104606539D01*
X151849995Y-104451957D01*
X151933904Y-104249882D01*
X151934095Y-104031078D01*
X151850539Y-103828857D01*
X151695957Y-103674005D01*
X151493882Y-103590096D01*
X151275078Y-103589905D01*
X151072857Y-103673461D01*
X150956114Y-103790000D01*
X149987000Y-103790000D01*
X149932043Y-103800932D01*
X150673487Y-103059488D01*
X150749358Y-102945940D01*
X150764467Y-102869979D01*
X150803732Y-102844712D01*
X150860815Y-102761169D01*
X150875820Y-102687070D01*
X150888535Y-102754644D01*
X150943288Y-102839732D01*
X151026831Y-102896815D01*
X151126000Y-102916897D01*
X151526000Y-102916897D01*
X151618644Y-102899465D01*
X151703732Y-102844712D01*
X151760815Y-102761169D01*
X151780897Y-102662000D01*
X151780897Y-102062000D01*
X151763465Y-101969356D01*
X151708712Y-101884268D01*
X151676000Y-101861917D01*
X151676000Y-100283499D01*
X151684800Y-100239258D01*
X151684800Y-99404742D01*
X151623234Y-99095228D01*
X151447908Y-98832834D01*
X151185514Y-98657508D01*
X150876000Y-98595942D01*
X150566486Y-98657508D01*
X150304092Y-98832834D01*
X150241000Y-98927258D01*
X150177908Y-98832834D01*
X149915514Y-98657508D01*
X149606000Y-98595942D01*
X149296486Y-98657508D01*
X149167427Y-98743742D01*
X149149128Y-98699563D01*
X149064736Y-98615172D01*
X148954473Y-98569500D01*
X148486000Y-98569500D01*
X148411000Y-98644500D01*
X148411000Y-99747000D01*
X148431000Y-99747000D01*
X148431000Y-99897000D01*
X148411000Y-99897000D01*
X148411000Y-100999500D01*
X148486000Y-101074500D01*
X148944000Y-101074500D01*
X148944000Y-101861443D01*
X148916268Y-101879288D01*
X148859185Y-101962831D01*
X148844180Y-102036930D01*
X148831465Y-101969356D01*
X148776712Y-101884268D01*
X148693169Y-101827185D01*
X148594000Y-101807103D01*
X148194000Y-101807103D01*
X148101356Y-101824535D01*
X148016268Y-101879288D01*
X147959185Y-101962831D01*
X147939103Y-102062000D01*
X147939103Y-102662000D01*
X147956535Y-102754644D01*
X147994000Y-102812866D01*
X147994000Y-103225025D01*
X146980914Y-104238111D01*
X146981095Y-104031078D01*
X146897539Y-103828857D01*
X146742957Y-103674005D01*
X146712000Y-103661151D01*
X146712000Y-102862557D01*
X146739732Y-102844712D01*
X146796815Y-102761169D01*
X146811820Y-102687070D01*
X146824535Y-102754644D01*
X146879288Y-102839732D01*
X146962831Y-102896815D01*
X147062000Y-102916897D01*
X147462000Y-102916897D01*
X147554644Y-102899465D01*
X147639732Y-102844712D01*
X147696815Y-102761169D01*
X147716897Y-102662000D01*
X147716897Y-102062000D01*
X147699465Y-101969356D01*
X147644712Y-101884268D01*
X147612000Y-101861917D01*
X147612000Y-101030790D01*
X147717527Y-101074500D01*
X148186000Y-101074500D01*
X148261000Y-100999500D01*
X148261000Y-99897000D01*
X148241000Y-99897000D01*
X148241000Y-99747000D01*
X148261000Y-99747000D01*
X148261000Y-98644500D01*
X148186000Y-98569500D01*
X147717527Y-98569500D01*
X147607264Y-98615172D01*
X147522872Y-98699563D01*
X147504573Y-98743742D01*
X147375514Y-98657508D01*
X147066000Y-98595942D01*
X146756486Y-98657508D01*
X146494092Y-98832834D01*
X146318766Y-99095228D01*
X146257200Y-99404742D01*
X146257200Y-100239258D01*
X146318766Y-100548772D01*
X146494092Y-100811166D01*
X146756486Y-100986492D01*
X146912000Y-101017426D01*
X146912000Y-101861443D01*
X146884268Y-101879288D01*
X146827185Y-101962831D01*
X146812180Y-102036930D01*
X146799465Y-101969356D01*
X146744712Y-101884268D01*
X146661169Y-101827185D01*
X146562000Y-101807103D01*
X146162000Y-101807103D01*
X146069356Y-101824535D01*
X145984268Y-101879288D01*
X145927185Y-101962831D01*
X145907103Y-102062000D01*
X145907103Y-102662000D01*
X145924535Y-102754644D01*
X145979288Y-102839732D01*
X146012000Y-102862083D01*
X146012000Y-103781130D01*
X145965005Y-103828043D01*
X145881096Y-104030118D01*
X145880905Y-104248922D01*
X145964461Y-104451143D01*
X146119043Y-104605995D01*
X146321118Y-104689904D01*
X146528940Y-104690085D01*
X146159026Y-105060000D01*
X145813975Y-105060000D01*
X145765000Y-105011026D01*
X145765000Y-101388084D01*
X145777922Y-101388095D01*
X145980143Y-101304539D01*
X146134995Y-101149957D01*
X146218904Y-100947882D01*
X146219095Y-100729078D01*
X146135539Y-100526857D01*
X145980957Y-100372005D01*
X145778882Y-100288096D01*
X145560078Y-100287905D01*
X145357857Y-100371461D01*
X145203005Y-100526043D01*
X145119096Y-100728118D01*
X145118931Y-100917221D01*
X145091642Y-100958061D01*
X145065000Y-101092000D01*
X145005000Y-101092000D01*
X145005000Y-99068101D01*
X145029936Y-98722351D01*
X145168861Y-98445224D01*
X145403263Y-98242358D01*
X145705391Y-98142000D01*
X152377838Y-98142000D01*
X152701016Y-98206284D01*
M02*
