G04 #@! TF.FileFunction,Legend,Bot*
%FSLAX46Y46*%
G04 Gerber Fmt 4.6, Leading zero omitted, Abs format (unit mm)*
G04 Created by KiCad (PCBNEW 4.0.1-stable) date 2016 March 24, Thursday 20:42:45*
%MOMM*%
G01*
G04 APERTURE LIST*
%ADD10C,0.100000*%
%ADD11C,0.080000*%
%ADD12C,2.127200*%
%ADD13O,1.517600X2.305000*%
%ADD14R,1.517600X2.305000*%
%ADD15R,2.127200X2.432000*%
%ADD16O,2.127200X2.432000*%
G04 APERTURE END LIST*
D10*
X150117808Y-112541857D02*
X149998761Y-112875190D01*
X149879713Y-112541857D01*
X149498761Y-112851381D02*
X149546380Y-112875190D01*
X149641618Y-112875190D01*
X149689237Y-112851381D01*
X149713047Y-112803762D01*
X149713047Y-112613286D01*
X149689237Y-112565667D01*
X149641618Y-112541857D01*
X149546380Y-112541857D01*
X149498761Y-112565667D01*
X149474952Y-112613286D01*
X149474952Y-112660905D01*
X149713047Y-112708524D01*
X149260666Y-112875190D02*
X149260666Y-112541857D01*
X149260666Y-112637095D02*
X149236857Y-112589476D01*
X149213047Y-112565667D01*
X149165428Y-112541857D01*
X149117809Y-112541857D01*
X148474952Y-112375190D02*
X148427333Y-112375190D01*
X148379714Y-112399000D01*
X148355905Y-112422810D01*
X148332095Y-112470429D01*
X148308286Y-112565667D01*
X148308286Y-112684714D01*
X148332095Y-112779952D01*
X148355905Y-112827571D01*
X148379714Y-112851381D01*
X148427333Y-112875190D01*
X148474952Y-112875190D01*
X148522571Y-112851381D01*
X148546381Y-112827571D01*
X148570190Y-112779952D01*
X148594000Y-112684714D01*
X148594000Y-112565667D01*
X148570190Y-112470429D01*
X148546381Y-112422810D01*
X148522571Y-112399000D01*
X148474952Y-112375190D01*
X148094000Y-112827571D02*
X148070191Y-112851381D01*
X148094000Y-112875190D01*
X148117810Y-112851381D01*
X148094000Y-112827571D01*
X148094000Y-112875190D01*
X147903524Y-112375190D02*
X147594001Y-112375190D01*
X147760667Y-112565667D01*
X147689239Y-112565667D01*
X147641620Y-112589476D01*
X147617810Y-112613286D01*
X147594001Y-112660905D01*
X147594001Y-112779952D01*
X147617810Y-112827571D01*
X147641620Y-112851381D01*
X147689239Y-112875190D01*
X147832096Y-112875190D01*
X147879715Y-112851381D01*
X147903524Y-112827571D01*
X145322952Y-102209667D02*
X145722952Y-102343001D01*
X145322952Y-102476334D01*
X145684857Y-102838239D02*
X145703905Y-102819191D01*
X145722952Y-102762048D01*
X145722952Y-102723953D01*
X145703905Y-102666810D01*
X145665810Y-102628715D01*
X145627714Y-102609667D01*
X145551524Y-102590619D01*
X145494381Y-102590619D01*
X145418190Y-102609667D01*
X145380095Y-102628715D01*
X145342000Y-102666810D01*
X145322952Y-102723953D01*
X145322952Y-102762048D01*
X145342000Y-102819191D01*
X145361048Y-102838239D01*
X145684857Y-103238239D02*
X145703905Y-103219191D01*
X145722952Y-103162048D01*
X145722952Y-103123953D01*
X145703905Y-103066810D01*
X145665810Y-103028715D01*
X145627714Y-103009667D01*
X145551524Y-102990619D01*
X145494381Y-102990619D01*
X145418190Y-103009667D01*
X145380095Y-103028715D01*
X145342000Y-103066810D01*
X145322952Y-103123953D01*
X145322952Y-103162048D01*
X145342000Y-103219191D01*
X145361048Y-103238239D01*
X145361048Y-106165571D02*
X145761048Y-106165571D01*
X145475333Y-106032238D01*
X145761048Y-105898904D01*
X145361048Y-105898904D01*
X145761048Y-105632237D02*
X145761048Y-105556047D01*
X145742000Y-105517952D01*
X145703905Y-105479856D01*
X145627714Y-105460809D01*
X145494381Y-105460809D01*
X145418190Y-105479856D01*
X145380095Y-105517952D01*
X145361048Y-105556047D01*
X145361048Y-105632237D01*
X145380095Y-105670333D01*
X145418190Y-105708428D01*
X145494381Y-105727476D01*
X145627714Y-105727476D01*
X145703905Y-105708428D01*
X145742000Y-105670333D01*
X145761048Y-105632237D01*
X145380095Y-105308428D02*
X145361048Y-105251285D01*
X145361048Y-105156047D01*
X145380095Y-105117951D01*
X145399143Y-105098904D01*
X145437238Y-105079856D01*
X145475333Y-105079856D01*
X145513429Y-105098904D01*
X145532476Y-105117951D01*
X145551524Y-105156047D01*
X145570571Y-105232237D01*
X145589619Y-105270332D01*
X145608667Y-105289380D01*
X145646762Y-105308428D01*
X145684857Y-105308428D01*
X145722952Y-105289380D01*
X145742000Y-105270332D01*
X145761048Y-105232237D01*
X145761048Y-105136999D01*
X145742000Y-105079856D01*
X145361048Y-104908428D02*
X145761048Y-104908428D01*
X145342000Y-107772238D02*
X145322952Y-107734143D01*
X145322952Y-107677000D01*
X145342000Y-107619857D01*
X145380095Y-107581762D01*
X145418190Y-107562714D01*
X145494381Y-107543666D01*
X145551524Y-107543666D01*
X145627714Y-107562714D01*
X145665810Y-107581762D01*
X145703905Y-107619857D01*
X145722952Y-107677000D01*
X145722952Y-107715095D01*
X145703905Y-107772238D01*
X145684857Y-107791286D01*
X145551524Y-107791286D01*
X145551524Y-107715095D01*
X145722952Y-107962714D02*
X145322952Y-107962714D01*
X145722952Y-108191286D01*
X145322952Y-108191286D01*
X145722952Y-108381762D02*
X145322952Y-108381762D01*
X145322952Y-108477000D01*
X145342000Y-108534143D01*
X145380095Y-108572238D01*
X145418190Y-108591286D01*
X145494381Y-108610334D01*
X145551524Y-108610334D01*
X145627714Y-108591286D01*
X145665810Y-108572238D01*
X145703905Y-108534143D01*
X145722952Y-108477000D01*
X145722952Y-108381762D01*
X152580952Y-102241429D02*
X152180952Y-102241429D01*
X152466667Y-102374762D01*
X152180952Y-102508096D01*
X152580952Y-102508096D01*
X152580952Y-102698572D02*
X152180952Y-102698572D01*
X152561905Y-102870000D02*
X152580952Y-102927143D01*
X152580952Y-103022381D01*
X152561905Y-103060477D01*
X152542857Y-103079524D01*
X152504762Y-103098572D01*
X152466667Y-103098572D01*
X152428571Y-103079524D01*
X152409524Y-103060477D01*
X152390476Y-103022381D01*
X152371429Y-102946191D01*
X152352381Y-102908096D01*
X152333333Y-102889048D01*
X152295238Y-102870000D01*
X152257143Y-102870000D01*
X152219048Y-102889048D01*
X152200000Y-102908096D01*
X152180952Y-102946191D01*
X152180952Y-103041429D01*
X152200000Y-103098572D01*
X152180952Y-103346191D02*
X152180952Y-103422381D01*
X152200000Y-103460476D01*
X152238095Y-103498572D01*
X152314286Y-103517619D01*
X152447619Y-103517619D01*
X152523810Y-103498572D01*
X152561905Y-103460476D01*
X152580952Y-103422381D01*
X152580952Y-103346191D01*
X152561905Y-103308095D01*
X152523810Y-103270000D01*
X152447619Y-103250952D01*
X152314286Y-103250952D01*
X152238095Y-103270000D01*
X152200000Y-103308095D01*
X152180952Y-103346191D01*
X152561905Y-104895714D02*
X152580952Y-104952857D01*
X152580952Y-105048095D01*
X152561905Y-105086191D01*
X152542857Y-105105238D01*
X152504762Y-105124286D01*
X152466667Y-105124286D01*
X152428571Y-105105238D01*
X152409524Y-105086191D01*
X152390476Y-105048095D01*
X152371429Y-104971905D01*
X152352381Y-104933810D01*
X152333333Y-104914762D01*
X152295238Y-104895714D01*
X152257143Y-104895714D01*
X152219048Y-104914762D01*
X152200000Y-104933810D01*
X152180952Y-104971905D01*
X152180952Y-105067143D01*
X152200000Y-105124286D01*
X152542857Y-105524286D02*
X152561905Y-105505238D01*
X152580952Y-105448095D01*
X152580952Y-105410000D01*
X152561905Y-105352857D01*
X152523810Y-105314762D01*
X152485714Y-105295714D01*
X152409524Y-105276666D01*
X152352381Y-105276666D01*
X152276190Y-105295714D01*
X152238095Y-105314762D01*
X152200000Y-105352857D01*
X152180952Y-105410000D01*
X152180952Y-105448095D01*
X152200000Y-105505238D01*
X152219048Y-105524286D01*
X152580952Y-105695714D02*
X152180952Y-105695714D01*
X152580952Y-105924286D02*
X152352381Y-105752857D01*
X152180952Y-105924286D02*
X152409524Y-105695714D01*
X152580952Y-107242048D02*
X152390476Y-107108714D01*
X152580952Y-107013476D02*
X152180952Y-107013476D01*
X152180952Y-107165857D01*
X152200000Y-107203952D01*
X152219048Y-107223000D01*
X152257143Y-107242048D01*
X152314286Y-107242048D01*
X152352381Y-107223000D01*
X152371429Y-107203952D01*
X152390476Y-107165857D01*
X152390476Y-107013476D01*
X152371429Y-107413476D02*
X152371429Y-107546809D01*
X152580952Y-107603952D02*
X152580952Y-107413476D01*
X152180952Y-107413476D01*
X152180952Y-107603952D01*
X152561905Y-107756333D02*
X152580952Y-107813476D01*
X152580952Y-107908714D01*
X152561905Y-107946810D01*
X152542857Y-107965857D01*
X152504762Y-107984905D01*
X152466667Y-107984905D01*
X152428571Y-107965857D01*
X152409524Y-107946810D01*
X152390476Y-107908714D01*
X152371429Y-107832524D01*
X152352381Y-107794429D01*
X152333333Y-107775381D01*
X152295238Y-107756333D01*
X152257143Y-107756333D01*
X152219048Y-107775381D01*
X152200000Y-107794429D01*
X152180952Y-107832524D01*
X152180952Y-107927762D01*
X152200000Y-107984905D01*
X152371429Y-108156333D02*
X152371429Y-108289666D01*
X152580952Y-108346809D02*
X152580952Y-108156333D01*
X152180952Y-108156333D01*
X152180952Y-108346809D01*
X152180952Y-108461095D02*
X152180952Y-108689667D01*
X152580952Y-108575381D02*
X152180952Y-108575381D01*
D11*
X149393238Y-101780952D02*
X149393238Y-101380952D01*
X149240857Y-101380952D01*
X149202762Y-101400000D01*
X149183714Y-101419048D01*
X149164666Y-101457143D01*
X149164666Y-101514286D01*
X149183714Y-101552381D01*
X149202762Y-101571429D01*
X149240857Y-101590476D01*
X149393238Y-101590476D01*
X148783714Y-101780952D02*
X149012286Y-101780952D01*
X148898000Y-101780952D02*
X148898000Y-101380952D01*
X148936095Y-101438095D01*
X148974190Y-101476190D01*
X149012286Y-101495238D01*
%LPC*%
D12*
X150368000Y-102870000D03*
X147828000Y-102870000D03*
X150368000Y-105410000D03*
X147828000Y-105410000D03*
X150368000Y-107950000D03*
X147828000Y-107950000D03*
D13*
X147066000Y-99822000D03*
D14*
X148336000Y-99822000D03*
D13*
X149606000Y-99822000D03*
X150876000Y-99822000D03*
D15*
X151384000Y-110998000D03*
D16*
X148844000Y-110998000D03*
X146304000Y-110998000D03*
M02*
